<svg width="490" height="420" viewBox="0 0 490 420" fill="none" xmlns="http://www.w3.org/2000/svg">
<g clip-path="url(#clip0_20_2)">
<path d="M490 413.046H0V420H490V413.046Z" fill="#FE1817"/>
<path d="M245 6.95367C190.879 6.95367 147 50.5417 147 104.305C147 189.029 245 219.353 245 303.305C245 219.353 343 184.597 343 104.305C343 50.5417 299.115 6.95367 245 6.95367ZM187.447 132.529C186.454 128.973 192.552 124.151 200.783 122.133C207.193 120.548 218.825 117.697 219.258 117.576L225.204 116.162C225.633 116.034 226.083 115.578 226.12 115.118L259.381 60.9585C259.455 60.5353 259.861 60.0451 260.337 59.9443L265.641 58.6649C266.125 58.5709 266.507 58.8227 266.517 59.313L247.309 110.02C247.356 110.467 247.738 110.722 248.222 110.628L259.827 107.824C260.273 107.777 261.023 107.589 261.419 107.512L290.893 102.696C291.34 102.649 291.755 102.239 291.864 101.769L295.173 82.195C295.207 81.7383 295.656 81.2816 296.13 81.1842L297.472 80.8417C297.871 80.7645 298.3 81.0499 298.347 81.4965L300.345 101.635C300.399 102.082 300.825 102.572 301.282 102.605C301.282 102.605 305.068 103.27 305.301 104.251C305.615 105.225 302.593 107.539 302.593 107.539C302.225 107.78 302.049 108.348 302.252 108.764L307.718 113.301C307.924 113.714 307.718 114.13 307.282 114.255L306.724 114.366C306.291 114.49 305.122 114.265 304.07 113.973L295.214 112.2C294.304 112.011 293.844 111.975 293.456 112.132L265.114 121.142C264.678 121.263 263.978 121.481 263.495 121.579L251.889 124.383C251.46 124.507 251.251 124.92 251.46 125.333L264.989 134.971C265.198 135.384 264.955 135.84 264.475 135.935L260.351 136.908C259.925 137.033 258.708 136.982 257.832 136.744L230.971 130.202C229.697 129.836 229.359 129.816 228.912 129.863L222.983 131.354C222.533 131.401 212.629 133.748 204.414 135.642C196.169 137.587 188.364 136.099 187.447 132.529Z" fill="url(#paint0_linear_20_2)"/>
<path d="M0.92389 395.551C0.630547 395.551 0.337203 395.405 0.190532 395.114C-0.0294755 394.896 -0.0294753 394.531 0.0438604 394.24L17.1311 350.603C17.2778 350.238 17.6444 350.02 18.0111 350.02H27.8381C28.2048 350.02 28.5715 350.238 28.7181 350.603L45.512 394.24C45.5854 394.531 45.5854 394.823 45.3654 395.114C45.2187 395.405 44.9253 395.551 44.632 395.551H34.4383C34.0717 395.551 33.705 395.333 33.5583 394.968L30.8449 388.266L14.3443 388.339L11.6309 394.968C11.4842 395.333 11.1176 395.551 10.7509 395.551H0.92389ZM17.3511 379.16H27.9114L22.6313 363.716L17.3511 379.16ZM76.4377 395.988C72.9176 395.988 69.3975 395.333 66.024 394.021C62.6506 392.783 59.6438 390.962 57.1504 388.776C56.8571 388.485 56.7837 388.048 56.9304 387.683L59.4972 379.014C59.6438 378.723 59.8638 378.504 60.1572 378.504C60.4505 378.431 60.7439 378.504 60.9639 378.723C64.8507 382.365 69.2508 385.644 74.751 385.935C76.2177 386.008 77.8311 386.081 79.2245 385.644C83.5513 384.259 81.7179 379.888 78.4911 378.577C77.3911 378.14 75.851 377.63 73.871 377.047C70.9375 376.246 68.5175 375.372 66.6841 374.497C64.704 373.623 63.0173 372.239 61.5506 370.418C60.1572 368.524 59.4238 366.047 59.4238 363.06C59.4238 360.219 60.1572 357.742 61.6239 355.629C63.0906 353.517 65.144 351.841 67.7108 350.748C70.2775 349.656 73.2843 349.073 76.6577 349.073C79.6645 349.073 82.5979 349.51 85.5314 350.457C88.3915 351.331 90.9582 352.57 93.2316 354.027C93.5983 354.318 93.745 354.755 93.525 355.192L91.1049 363.351C91.0315 363.643 90.8115 363.789 90.5182 363.861C90.2982 363.934 90.0048 363.934 89.7848 363.789C86.4847 361.749 83.1846 359.272 79.2978 358.762C76.7311 358.398 72.8443 358.543 71.9642 361.603C70.8642 365.537 76.6577 366.557 79.2978 367.358C82.2313 368.232 84.6513 369.107 86.5581 369.981C88.5381 370.928 90.2982 372.385 91.6916 374.206C93.1583 376.1 93.8916 378.65 93.8916 381.71C93.8916 384.697 93.0849 387.246 91.5449 389.432C90.0782 391.617 87.9514 393.22 85.3114 394.386C82.6713 395.405 79.7378 395.988 76.4377 395.988ZM107.583 395.551C107.07 395.551 106.63 395.114 106.63 394.604V350.967C106.63 350.457 107.07 350.02 107.583 350.02H117.117C117.63 350.02 118.07 350.457 118.07 350.967V394.604C118.07 395.114 117.63 395.551 117.117 395.551H107.583ZM131.762 395.551C131.469 395.551 131.176 395.405 131.029 395.114C130.809 394.896 130.809 394.531 130.882 394.24L147.969 350.603C148.116 350.238 148.483 350.02 148.849 350.02H158.676C159.043 350.02 159.41 350.238 159.556 350.603L176.35 394.24C176.424 394.531 176.424 394.823 176.204 395.114C176.057 395.405 175.764 395.551 175.47 395.551H165.277C164.91 395.551 164.543 395.333 164.397 394.968L161.683 388.266L145.183 388.339L142.469 394.968C142.323 395.333 141.956 395.551 141.589 395.551H131.762ZM148.189 379.16H158.75L153.47 363.716L148.189 379.16ZM225.515 395.551C225.001 395.551 224.635 395.114 224.635 394.604V360.219H214.588C214.074 360.219 213.634 359.855 213.634 359.345V350.967C213.634 350.457 214.074 350.02 214.588 350.02H246.049C246.635 350.02 247.002 350.457 247.002 350.967V359.345C247.002 359.855 246.635 360.219 246.049 360.219H236.002V394.604C236.002 395.114 235.562 395.551 235.048 395.551H225.515ZM260.694 395.551C260.107 395.551 259.74 395.114 259.74 394.604V350.967C259.74 350.457 260.107 350.02 260.694 350.02H278.588C284.161 350.02 288.561 351.404 291.642 354.245C296.188 358.325 297.728 366.047 295.528 371.729C294.722 373.769 293.328 375.663 291.568 377.047C290.541 377.849 289.441 378.431 288.341 379.014C291.495 383.968 296.262 394.021 296.262 394.021C296.335 394.167 296.482 394.386 296.482 394.604C296.482 395.114 296.042 395.551 295.528 395.551H284.675C284.381 395.551 284.015 395.333 283.868 395.041L277.488 381.127C275.214 381.273 273.454 381.2 271.107 381.2V394.604C271.107 395.114 270.667 395.551 270.154 395.551H260.694ZM271.107 371.074C271.107 371.074 280.348 372.093 283.575 369.981C284.821 369.179 285.555 367.212 285.555 365.755C285.481 364.153 284.675 362.477 283.355 361.457C281.961 360.292 278.514 359.927 276.754 359.927L271.107 360.073V371.074ZM310.247 395.551C309.953 395.551 309.66 395.405 309.513 395.114C309.293 394.896 309.293 394.531 309.367 394.24L326.454 350.603C326.601 350.238 326.967 350.02 327.334 350.02H337.161C337.528 350.02 337.894 350.238 338.041 350.603L354.835 394.24C354.908 394.531 354.908 394.823 354.688 395.114C354.542 395.405 354.248 395.551 353.955 395.551H343.761C343.395 395.551 343.028 395.333 342.881 394.968L340.168 388.266L323.667 388.339L320.954 394.968C320.807 395.333 320.44 395.551 320.074 395.551H310.247ZM326.674 379.16H337.234L331.954 363.716L326.674 379.16ZM375.934 395.551C375.567 395.551 375.2 395.333 375.054 394.968L360.386 351.258C360.24 350.967 360.313 350.676 360.46 350.384C360.68 350.166 360.973 350.02 361.266 350.02H371.533C371.9 350.02 372.267 350.238 372.414 350.676L381.14 379.16L389.941 350.676C390.087 350.238 390.454 350.02 390.821 350.02H400.648C400.941 350.02 401.234 350.166 401.454 350.384C401.601 350.676 401.674 350.967 401.528 351.258L386.641 394.968C386.494 395.333 386.201 395.551 385.761 395.551H375.934ZM414.34 395.551V351.914C414.34 350.093 414.706 349.728 415.293 349.728H447.414C447.927 349.728 448.367 350.093 448.367 350.603V358.835C448.367 359.345 447.927 359.782 447.414 359.782H425.707V367.358H439.42C439.934 367.358 440.374 367.795 440.374 368.305V376.464C440.374 376.974 439.934 377.412 439.42 377.412H425.707V385.206H447.341C447.854 385.206 448.294 385.644 448.294 386.154V394.313C448.294 394.823 447.854 395.26 447.341 395.26H415.293C414.706 395.26 414.34 394.823 414.34 395.551ZM462.059 395.551C461.546 395.551 461.106 395.114 461.106 394.604V350.967C461.106 350.457 461.546 350.02 462.059 350.02H471.593C472.106 350.02 472.546 350.457 472.546 350.967V385.061H489.047C489.56 385.061 490 385.498 490 386.008V394.604C490 395.114 489.56 395.551 489.047 395.551H462.059Z" fill="url(#paint1_linear_20_2)"/>
</g>
<defs>
<linearGradient id="paint0_linear_20_2" x1="147" y1="6.95367" x2="343" y2="6.95367" gradientUnits="userSpaceOnUse">
<stop stop-color="#7D141D"/>
<stop offset="1" stop-color="#FF1E27"/>
</linearGradient>
<linearGradient id="paint1_linear_20_2" x1="0" y1="349.073" x2="490" y2="349.073" gradientUnits="userSpaceOnUse">
<stop stop-color="#7D141D"/>
<stop offset="1" stop-color="#FF1E27"/>
</linearGradient>
<clipPath id="clip0_20_2">
<rect width="490" height="420" fill="white"/>
</clipPath>
</defs>
</svg>
